<?xml version="1.0" encoding="UTF-8"?>
<svg id="Capa_1" xmlns="http://www.w3.org/2000/svg" version="1.1" viewBox="0 0 284.2 90">
  <!-- Generator: Adobe Illustrator 29.0.0, SVG Export Plug-In . SVG Version: 2.1.0 Build 186)  -->
  <defs>
    <style>
      .st0 {
        fill: #957b39;
      }

      .st1 {
        fill: #402f03;
      }

      .st2 {
        fill: #fff;
      }

      .st3 {
        fill: none;
      }

      .st4 {
        fill: #031240;
      }
    </style>
  </defs>
  <g>
    <path class="st0" d="M66.1,15.5c-8.1-2.9-16-6.9-24.1-9.7-2-.7-3.8-1.1-6-.9-1.5.1-2.8.6-4.2,1.1-8.1,2.9-15.9,6.8-24,9.8-2.1,1-3.4,2.6-3.7,4.9v32.1c.6,8.3,4.5,16,11.2,20.9,5.6,4.1,12.3,7.4,18.2,10.8,2.9,1.1,5.3.8,8-.5,4.2-2,9.1-5.3,13.2-7.8,2.5-1.5,4.9-3.1,7-5.1,5-4.8,7.9-11.5,8.4-18.4v-32c-.2-2.6-1.8-4.3-4.1-5.3ZM67,52.5c-.7,8.3-4.5,14.7-11.4,19.2-4.5,3-10.1,6.2-14.9,8.8-4.3,2.3-5.7.7-9.5-1.4-3.9-2.2-8.3-4.7-12-7.2-7.2-4.7-11.2-11.8-11.6-20.5-.5-9.8.3-20,0-29.9.2-2.2,3.4-3,5.1-3.7,6.5-2.7,13.3-5.7,19.9-8.1,1.2-.4,2.5-.9,3.8-1.1,1.7-.2,3,.2,4.6.7,8.1,2.7,16.1,6.7,24.1,9.6,1,.5,1.8,1.4,1.9,2.5,0,0,0,31,0,31Z"/>
    <path class="st0" d="M65.1,19c-8.1-2.9-16-6.9-24.1-9.6-1.6-.5-2.9-.9-4.6-.7-1.2.1-2.6.6-3.8,1.1-6.6,2.4-13.4,5.4-19.9,8.1-1.8.7-4.9,1.5-5.2,3.7.3,9.9-.5,20.1,0,29.9.4,8.7,4.4,15.7,11.6,20.5,3.8,2.5,8.1,4.9,12,7.2,3.8,2.1,5.2,3.7,9.5,1.4,4.8-2.6,10.4-5.8,14.9-8.8,6.9-4.5,10.7-10.9,11.4-19.2v-31c0-1.2-.8-2-1.9-2.5ZM62,53.1c-.6,6-3.4,10.7-8.3,14.2-5,3.5-10.8,6.4-16,9.6-.8.2-1.1,0-1.8-.4-3.5-1.7-7.7-4.5-11.1-6.6-6.8-4.2-11.8-8.5-12.3-17.1-.4-6.8.3-13.9,0-20.7,0-.3.1-.6.3-.9.4-.8,3.3-2.6,4.2-3.3,5.7-4.1,11.5-8.3,17.3-12.2.6-.4,2-1.5,2.6-1.6.5,0,1,0,1.5.3,7.1,5.3,14.8,10.1,21.9,15.5,1.2.9,1.9,1.2,2,2.8.5,6.5-.3,13.8-.1,20.4Z"/>
    <path class="st3" d="M62.1,32.8c-.1-1.6-.8-1.9-2-2.8-7-5.4-14.8-10.1-21.9-15.5-.4-.3-1-.4-1.5-.3-.6.1-2,1.2-2.6,1.6-5.8,3.9-11.6,8.1-17.3,12.2-.9.7-3.7,2.5-4.2,3.3-.2.3-.3.6-.3.9.3,6.8-.4,13.9,0,20.7.5,8.6,5.5,12.9,12.3,17.1,3.4,2.1,7.6,4.9,11.1,6.6.7.3,1,.5,1.8.4,5.2-3.2,11-6.1,16-9.6,4.9-3.5,7.8-8.1,8.3-14.2-.2-6.6.6-13.8.1-20.4ZM15.9,34.2h3.1v3.3h-3.1s0-3.3,0-3.3ZM15.9,41h3.1v3.9h-3.1s0-3.9,0-3.9ZM31.6,69.8c-.8-.3-1.6-.8-2.4-1.3-5.7-3.3-11.2-6.1-12.8-13.1-.6-2.4-.5-4.8-.5-7.2h15.7s0,21.7,0,21.7ZM25.1,41v3.9h-2.9v-3.9h2.9ZM22.2,37.5v-3.3h2.9v3.3s-2.9,0-2.9,0ZM31.6,44.8h-3.4v-3.9h3.4v3.9ZM31.6,37.5h-3.4v-3.3h3.4s0,3.3,0,3.3ZM51.8,64.4c-4.4,3.1-9.6,5.6-14.2,8.5-.2,0-.3.1-.5,0-.3,0-2.1-1.1-2.1-1.4v-16.2h23.2c-.9,3.7-3.3,6.8-6.4,9ZM58.6,51.9h-23.6v-3.5s-.2-.1,0-.3h23.5v3.8ZM58.6,44.8h-4.6v-6.5c0-4.5-5.5-7.5-9.4-5.2-1.5.8-3.2,3.1-3.2,4.8v2.5h3.4c0-1.3,0-3,1.1-3.9,1.3-1,3.1-.7,4,.6.2.2.6,1,.6,1.3v6.4h-15.4l-.2-14.1h-14.9c0,0-.2-.1-.2-.1l17.2-12h.4c0,0,20.8,14.9,20.8,14.9,0,0,.3.4.3.5,0,0,0,10.9,0,10.9Z"/>
    <rect class="st1" x="15.9" y="41" width="3.1" height="3.9"/>
    <rect class="st1" x="22.2" y="41" width="2.9" height="3.9"/>
    <rect class="st1" x="28.1" y="41" width="3.4" height="3.9"/>
    <rect class="st1" x="28.1" y="34.2" width="3.4" height="3.3"/>
    <rect class="st1" x="22.2" y="34.2" width="2.9" height="3.3"/>
    <rect class="st1" x="15.9" y="34.2" width="3.1" height="3.3"/>
    <path class="st1" d="M31.6,48.2v21.7c-.8-.3-1.6-.8-2.4-1.3-5.7-3.3-11.2-6.1-12.8-13.1-.6-2.4-.5-4.8-.5-7.2,0,0,15.7,0,15.7,0Z"/>
    <path class="st1" d="M35,55.5v16.2c0,.2,1.8,1.3,2.1,1.4.2,0,.3,0,.5,0,4.6-2.9,9.8-5.4,14.2-8.5,3.1-2.2,5.5-5.3,6.4-9,0,0-23.2,0-23.2,0ZM47.7,61.7h-3.7v-3.5h3.7v3.5Z"/>
    <path class="st1" d="M58.6,48.2v3.8h-23.6v-3.5s-.2-.1,0-.3h23.5Z"/>
    <path class="st1" d="M58.6,34v10.9h-4.6v-6.5c0-4.5-5.5-7.5-9.4-5.2-1.5.8-3.2,3.1-3.2,4.8v2.5h3.4c0-1.3,0-3,1.1-3.9,1.3-1,3.1-.7,4,.6.2.2.6,1,.6,1.3v6.4h-15.4l-.2-14.1h-14.9c0,0-.2-.1-.2-.1l17.2-12h.4c0,0,20.8,14.9,20.8,14.9,0,0,.3.4.3.5Z"/>
    <rect class="st2" x="44" y="58.2" width="3.7" height="3.5"/>
  </g>
  <g>
    <g>
      <path class="st4" d="M92.8,55.2c-1.8,0-3.5-.5-5-1.4-1.5-.9-2.7-2.1-3.5-3.7-.9-1.5-1.3-3.2-1.3-5.2v-15.6c0-1.8.5-3.5,1.3-5,.8-1.5,2-2.7,3.5-3.6s3.1-1.4,5-1.4,3.5.5,4.9,1.4c1.5.9,2.6,2.1,3.5,3.6.9,1.5,1.3,3.2,1.3,5.1v2.3c0,.1,0,.2-.2.2h-5.6c-.1,0-.2,0-.2-.2v-2.3c0-1.1-.4-2-1.1-2.9-.7-.8-1.6-1.2-2.7-1.2s-2.1.4-2.8,1.2c-.6.8-.9,1.8-.9,2.8v15.6c0,1.2.4,2.2,1.1,3,.7.8,1.6,1.2,2.6,1.2s2-.4,2.7-1.3c.7-.8,1.1-1.8,1.1-2.9v-2.3c0-.1,0-.2.2-.2h5.7c.1,0,.2,0,.2.2v2.3c0,1.9-.4,3.6-1.3,5.2-.9,1.5-2.1,2.8-3.5,3.7-1.5.9-3.1,1.4-4.9,1.4h0Z"/>
      <path class="st4" d="M109.5,54.4l6.2-34.3c0-.1.1-.2.2-.2h7.2c.1,0,.2,0,.2.2l5.9,34.3c0,.2,0,.2-.2.2h-5.6c-.1,0-.2,0-.2-.2l-.6-3.7h-6.8l-.6,3.7c0,.2-.1.2-.2.2h-5.6c-.1,0-.2,0-.2-.2h0ZM117.1,45.4h4.8l-2.1-14-.3-1.9-.2,1.9-2.2,14Z"/>
      <path class="st4" d="M137.9,54.7c-.1,0-.2,0-.2-.2V20.1c.1-.1.2-.2.3-.2h9.6c1.9,0,3.6.5,5.1,1.4,1.5.9,2.7,2.1,3.6,3.6.9,1.5,1.3,3.1,1.3,4.9s-.3,2.8-1,4c-.6,1.2-1.4,2.2-2.3,3,1,1,1.7,2.1,2.2,3.3.5,1.3.8,2.6.8,4s-.5,3.7-1.4,5.3-2.2,2.9-3.8,3.8-3.3,1.4-5.3,1.4h-9ZM143.8,48.6h3.1c1.2,0,2.2-.4,3.1-1.3.9-.9,1.3-1.9,1.3-3.1s-.4-2.2-1.3-3.1c-.9-.9-1.9-1.3-3.1-1.3h-3.1v8.8c0,0,0,0,0,0ZM143.8,33.7h3.8c1.2,0,2.1-.4,2.8-1.2.7-.8,1.1-1.7,1.1-2.7s-.4-2-1.1-2.8c-.8-.8-1.7-1.2-2.8-1.2h-3.8v7.8h0Z"/>
      <path class="st4" d="M166.3,54.7c-.2,0-.2,0-.2-.2V20.1c0-.1.1-.2.2-.2h5.6c.1,0,.2,0,.2.2v34.3c0,.2,0,.2-.1.2h-5.7Z"/>
      <path class="st4" d="M182.1,54.7c-.3,0-.4-.1-.4-.3V20.3c0-.3,0-.4.3-.4h4.5l8.4,19.7-.2-19.3c0-.3.1-.4.4-.4h4.9c.2,0,.3.1.3.4v34.1c0,.2,0,.3-.2.3h-4.4l-8.6-18.4.4,18c0,.3-.1.4-.4.4h-5Z"/>
      <path class="st4" d="M210.2,54.7c-.1,0-.2,0-.2-.2V20.1c0-.1.1-.2.2-.2h16c.1,0,.2,0,.2.2v5.6c0,.1,0,.2-.2.2h-10.2v7.8h10.2c.1,0,.2,0,.2.2v5.7c0,.1,0,.2-.1.2h-10.3v8.8h10.3c.1,0,.2,0,.2.2v5.7c0,.1,0,.2-.2.2h-16.1Z"/>
      <path class="st4" d="M233.6,54.7c-.1,0-.2,0-.1-.2l5.7-17.8-5.6-16.5c0-.1,0-.2.1-.2h5.6c.2,0,.3,0,.3.2l3.4,11.9,3.4-11.9c0-.1.1-.2.3-.2h5.6c.1,0,.2,0,.1.2l-5.6,16.4,5.6,17.9c0,.2,0,.2-.1.2h-5.6c-.1,0-.2,0-.3-.2l-3.4-12.9-3.4,12.9c0,.2-.1.2-.3.2h-5.6,0Z"/>
      <path class="st4" d="M265.5,54.7c-.1,0-.2,0-.2-.2v-28.5h-6.5c-.2,0-.2,0-.2-.2v-5.6c0-.1.1-.2.2-.2h19c.2,0,.2,0,.2.2v5.6c0,.2,0,.2-.2.2h-6.5v28.5c0,.2,0,.2-.2.2h-5.6,0Z"/>
    </g>
    <g>
      <path class="st4" d="M105.6,62.8v.9h-2.2v6.8h-1.1v-6.8h-2.2v-.9h5.5,0Z"/>
      <path class="st4" d="M110.2,67.3h-1.2v3.3h-1.1v-7.7h2c1,0,1.7.2,2.2.5s.8.9.8,1.6-.1,1-.4,1.3c-.3.3-.7.6-1.3.8l2.1,3.5h-1.3l-1.8-3.3h0ZM110.1,66.4c.6,0,1-.1,1.3-.3.3-.2.4-.6.4-1.1s-.1-.8-.4-1c-.3-.2-.8-.3-1.4-.3h-.9v2.8h1.1,0Z"/>
      <path class="st4" d="M120,70.5l-.6-1.9h-2.9l-.6,1.9h-1.1l2.5-7.7h1.3l2.5,7.7h-1.1ZM116.8,67.7h2.4l-1.2-4s-1.2,4-1.2,4Z"/>
      <path class="st4" d="M128.9,70.5h-1.4l-3.1-6.6c0,.5,0,1,.1,1.4,0,.4,0,1,0,1.6v3.5h-1v-7.7h1.4l3.2,6.6c0-.2,0-.5,0-1,0-.5,0-.9,0-1.3v-4.2h1v7.7h0Z"/>
      <path class="st4" d="M135.5,62.9c.4.2.7.4,1.1.7l-.6.7c-.3-.2-.6-.4-.9-.5-.3-.1-.6-.2-.9-.2s-.7,0-1,.3c-.3.2-.4.5-.4.8s0,.4.1.6c0,.2.3.3.5.4s.6.3,1.1.4c.5.2.9.3,1.2.5s.6.4.8.7c.2.3.3.7.3,1.2s-.1.8-.3,1.2-.5.6-.9.8c-.4.2-.9.3-1.5.3-1.1,0-1.9-.3-2.6-1l.6-.7c.3.2.6.4.9.6.3.1.7.2,1.1.2s.9-.1,1.2-.3c.3-.2.5-.6.5-1s0-.5-.1-.6c-.1-.2-.3-.3-.5-.4s-.6-.3-1-.4c-.8-.2-1.4-.5-1.7-.9-.4-.3-.6-.8-.6-1.4s.1-.7.3-1,.5-.5.9-.7.8-.3,1.3-.3,1,0,1.3.2h0Z"/>
      <path class="st4" d="M139.6,70.5v-7.7h4.1v.8h-3v2.6h2.5v.8h-2.5v3.4h-1.1Z"/>
      <path class="st4" d="M150.5,63.1c.5.3.9.8,1.1,1.4.3.6.4,1.3.4,2.2s-.1,1.6-.4,2.2-.6,1.1-1.1,1.4c-.5.3-1.1.5-1.7.5s-1.2-.2-1.7-.5-.9-.8-1.1-1.4-.4-1.3-.4-2.2.1-1.6.4-2.2.7-1.1,1.1-1.4,1.1-.5,1.7-.5,1.2.2,1.7.5h0ZM147.2,64.3c-.4.5-.6,1.3-.6,2.4s.2,1.8.6,2.3.9.8,1.6.8c1.4,0,2.1-1,2.1-3.1s-.7-3.1-2.1-3.1-1.2.2-1.6.8h0Z"/>
      <path class="st4" d="M157.2,67.3h-1.2v3.3h-1.1v-7.7h2c1,0,1.7.2,2.2.5s.8.9.8,1.6-.1,1-.4,1.3c-.3.3-.7.6-1.3.8l2.1,3.5h-1.3l-1.9-3.3h0ZM157.1,66.4c.6,0,1-.1,1.3-.3.3-.2.4-.6.4-1.1s-.1-.8-.4-1c-.3-.2-.8-.3-1.4-.3h-.9v2.8h1.1,0Z"/>
      <path class="st4" d="M169.8,70.5h-1l-.3-3.5c-.1-1.4-.2-2.4-.2-3.2l-1.7,5.8h-1l-1.8-5.8c0,.9,0,2-.1,3.2l-.3,3.4h-1l.6-7.7h1.4l1.6,5.6,1.6-5.6h1.4l.6,7.7h0Z"/>
      <path class="st4" d="M181.9,62.8l-2.5,4.7v3h-1.1v-3l-2.5-4.8h1.2l1.9,3.8,1.9-3.8h1.1Z"/>
      <path class="st4" d="M188.3,63.1c.5.3.9.8,1.1,1.4.3.6.4,1.3.4,2.2s-.1,1.6-.4,2.2-.6,1.1-1.1,1.4c-.5.3-1.1.5-1.7.5s-1.2-.2-1.7-.5-.9-.8-1.1-1.4-.4-1.3-.4-2.2.1-1.6.4-2.2.7-1.1,1.1-1.4,1.1-.5,1.7-.5,1.2.2,1.7.5h0ZM185,64.3c-.4.5-.6,1.3-.6,2.4s.2,1.8.6,2.3.9.8,1.6.8c1.4,0,2.1-1,2.1-3.1s-.7-3.1-2.1-3.1-1.2.2-1.6.8h0Z"/>
      <path class="st4" d="M198,68.1c0,.5-.1,1-.3,1.4s-.5.7-.9.9c-.4.2-.9.3-1.5.3-.9,0-1.5-.2-2-.7s-.7-1.1-.7-1.9v-5.2h1.1v5.2c0,.6.1,1.1.4,1.3.3.3.7.4,1.2.4s1-.2,1.2-.4c.3-.3.4-.8.4-1.3v-5.2h1.1v5.2h0Z"/>
      <path class="st4" d="M203.6,67.3h-1.2v3.3h-1.1v-7.7h2c1,0,1.7.2,2.2.5s.8.9.8,1.6-.1,1-.4,1.3c-.3.3-.7.6-1.3.8l2.1,3.5h-1.3l-1.9-3.3ZM203.5,66.4c.6,0,1-.1,1.3-.3s.4-.6.4-1.1-.1-.8-.4-1c-.3-.2-.8-.3-1.4-.3h-.9v2.8h1.1,0Z"/>
      <path class="st4" d="M214.4,62.8v7.7h-1.1v-7.7s1.1,0,1.1,0ZM218.6,62.8l-2.9,3.5,3.1,4.2h-1.3l-3.1-4.1,2.9-3.6h1.2,0Z"/>
      <path class="st4" d="M222.2,62.8v7.7h-1.1v-7.7s1.1,0,1.1,0Z"/>
      <path class="st4" d="M230.2,62.8v.9h-2.2v6.8h-1.1v-6.8h-2.2v-.9s5.5,0,5.5,0Z"/>
      <path class="st4" d="M236,62.8c.3.1.6.3,1,.6l-.6.7c-.5-.4-1-.6-1.5-.6s-1.2.2-1.6.7-.6,1.3-.6,2.4.2,1.8.6,2.3c.4.5.9.8,1.6.8s.6,0,.9-.2c.2-.1.5-.3.8-.5l.5.7c-.2.2-.6.4-.9.6s-.8.2-1.3.2-1.2-.2-1.7-.5-.9-.8-1.1-1.4-.4-1.3-.4-2.2.1-1.6.4-2.2c.3-.6.7-1,1.1-1.4.5-.3,1-.5,1.6-.5s.9,0,1.2.2h0Z"/>
      <path class="st4" d="M243.9,70.5v-3.6h-3.2v3.6h-1.1v-7.7h1.1v3.2h3.2v-3.2h1.1v7.7h-1.1Z"/>
      <path class="st4" d="M252.6,62.8v.8h-3.1v2.5h2.6v.8h-2.6v2.6h3.2v.8h-4.3v-7.7h4.2,0Z"/>
      <path class="st4" d="M260.9,70.5h-1.4l-3.1-6.6c0,.5,0,1,.1,1.4,0,.4,0,1,0,1.6v3.5h-1v-7.7h1.4l3.2,6.6c0-.2,0-.5,0-1s0-.9,0-1.3v-4.2h1v7.7h0Z"/>
    </g>
  </g>
</svg>